<?xml version="1.0" standalone="no"?>
<!DOCTYPE svg PUBLIC "-//W3C//DTD SVG 20010904//EN"
 "http://www.w3.org/TR/2001/REC-SVG-20010904/DTD/svg10.dtd">
<svg version="1.0" xmlns="http://www.w3.org/2000/svg"
 width="1079.000000pt" height="1079.000000pt" viewBox="0 0 1079.000000 1079.000000"
 preserveAspectRatio="xMidYMid meet">
<metadata>
Created by potrace 1.14, written by Peter Selinger 2001-2017
</metadata>
<g transform="translate(0.000000,1079.000000) scale(0.100000,-0.100000)"
fill="#000000" stroke="none">
<path d="M0 5395 l0 -5395 5395 0 5395 0 0 4410 0 4410 -767 0 c-724 1 -980 5
-1012 16 -11 4 -13 25 -7 113 l7 109 -26 21 c-36 27 -24 41 35 41 58 0 67 -14
27 -49 l-28 -26 8 -100 8 -100 81 -3 81 -3 28 37 c25 32 27 40 17 70 -12 40 4
47 18 8 6 -14 31 -46 56 -71 l45 -46 647 6 646 7 68 67 68 67 0 213 0 213
-302 0 -303 0 -33 -49 -33 -48 -136 -2 c-75 -1 -139 -4 -143 -6 -4 -3 -24 15
-44 39 -31 39 -36 51 -36 98 0 32 6 62 16 76 15 21 21 22 190 22 162 0 175 -1
192 -20 9 -11 19 -30 22 -43 l6 -22 302 -3 302 -2 0 670 0 670 -5395 0 -5395
0 0 -5395z m9040 4064 c0 -64 -18 -118 -32 -97 -9 15 -11 162 -1 171 17 17 33
-19 33 -74z m-252 -506 c-6 -16 -14 -48 -18 -73 l-7 -45 -2 43 c0 24 6 56 14
72 19 38 28 39 13 3z m-4042 -1659 c241 -49 527 -213 815 -466 37 -32 71 -58
77 -58 5 0 54 38 108 85 348 299 666 455 927 455 140 -1 257 -50 340 -145 67
-77 134 -240 156 -381 32 -205 18 -497 -34 -754 -13 -63 -21 -118 -17 -121 4
-4 59 -25 122 -47 549 -191 879 -453 930 -740 38 -208 -100 -431 -380 -616
-144 -95 -372 -203 -562 -266 -54 -17 -100 -35 -103 -40 -3 -5 4 -55 15 -112
51 -261 66 -581 36 -761 -84 -506 -403 -652 -911 -417 -153 70 -361 212 -535
364 -41 36 -79 66 -85 65 -5 0 -30 -18 -55 -40 -237 -211 -475 -364 -689 -445
-180 -68 -360 -75 -485 -20 -64 29 -152 107 -196 176 -135 210 -163 608 -75
1064 13 67 20 124 17 127 -4 4 -45 19 -92 34 -47 15 -154 57 -238 93 -497 210
-771 509 -722 789 48 284 395 560 938 748 126 44 120 35 96 147 -48 228 -68
561 -44 733 44 306 175 494 381 549 72 19 173 20 265 0z"/>
<path d="M4526 7068 c-80 -22 -147 -122 -182 -273 -29 -122 -26 -444 4 -620
35 -197 35 -200 58 -199 10 1 87 15 170 32 83 17 223 41 312 53 l161 22 33 46
c53 74 195 250 267 330 36 40 79 89 95 108 l29 34 -34 30 c-388 337 -709 491
-913 437z"/>
<path d="M6537 7065 c-194 -53 -422 -194 -692 -428 l-40 -35 20 -23 c11 -13
54 -62 96 -109 82 -92 225 -267 278 -342 32 -44 36 -47 95 -53 104 -11 365
-55 480 -81 60 -13 111 -22 113 -20 8 7 23 85 44 216 68 440 4 799 -155 871
-49 22 -166 24 -239 4z"/>
<path d="M5562 6353 c-76 -85 -202 -237 -198 -240 1 -2 526 -5 549 -4 14 1
-259 321 -274 321 -4 0 -38 -35 -77 -77z"/>
<path d="M5390 5875 c-14 -2 -69 -7 -122 -10 l-97 -7 -79 -121 c-133 -205
-250 -410 -336 -590 l-46 -97 79 -158 c127 -251 355 -621 399 -647 20 -12 828
-14 885 -2 33 7 44 19 97 98 103 152 198 316 303 518 l100 194 -62 126 c-83
167 -202 373 -312 542 l-89 136 -48 7 c-53 7 -633 16 -672 11z m375 -367 c157
-39 299 -191 334 -356 49 -235 -80 -463 -308 -544 -75 -26 -215 -28 -289 -4
-246 82 -381 325 -317 571 34 130 125 239 249 300 104 52 213 62 331 33z"/>
<path d="M4628 5783 c-121 -24 -178 -39 -178 -48 0 -14 99 -307 123 -363 17
-40 16 -41 87 93 30 55 84 150 122 212 38 62 71 119 74 128 9 22 -22 19 -228
-22z"/>
<path d="M6420 5813 c0 -4 32 -60 71 -123 39 -63 98 -166 132 -227 33 -62 63
-113 67 -113 17 0 144 380 131 393 -7 7 -256 58 -353 72 -27 4 -48 3 -48 -2z"/>
<path d="M4100 5641 c-291 -103 -551 -254 -669 -387 -51 -57 -101 -156 -101
-199 0 -16 14 -59 30 -94 56 -118 223 -257 439 -365 135 -68 415 -177 424
-165 2 2 29 82 61 176 31 95 82 232 112 305 30 73 53 142 51 153 -3 11 -33 88
-67 170 -34 83 -83 215 -110 295 -26 79 -52 145 -56 147 -5 1 -56 -15 -114
-36z"/>
<path d="M7007 5533 c-26 -82 -77 -220 -112 -308 -36 -88 -64 -169 -61 -180 2
-11 31 -85 64 -165 32 -80 81 -210 107 -290 26 -80 51 -149 56 -154 22 -25
438 156 596 260 102 66 230 189 264 254 35 67 33 150 -5 215 -102 174 -393
359 -765 486 -47 16 -87 29 -90 29 -4 0 -28 -66 -54 -147z"/>
<path d="M4542 4648 c-54 -153 -95 -279 -91 -282 17 -15 409 -85 409 -73 0 4
-40 74 -88 155 -49 81 -108 184 -132 230 -24 45 -47 82 -51 82 -3 0 -24 -51
-47 -112z"/>
<path d="M6619 4643 c-34 -64 -93 -167 -130 -230 -38 -62 -69 -115 -69 -118 0
-3 11 -5 25 -5 27 0 377 69 383 75 11 11 -124 395 -138 395 -5 0 -36 -53 -71
-117z"/>
<path d="M4392 4127 c-9 -12 -33 -140 -54 -282 -18 -126 -15 -424 6 -520 29
-134 86 -239 147 -270 169 -88 489 38 844 330 55 45 109 92 119 104 19 21 19
22 -10 55 -16 19 -78 91 -139 161 -60 70 -143 171 -183 224 l-74 96 -181 26
c-185 27 -292 46 -404 72 -47 11 -64 12 -71 4z"/>
<path d="M6740 4109 c-134 -29 -331 -61 -445 -74 -60 -7 -60 -7 -105 -68 -62
-86 -219 -276 -306 -373 -40 -44 -69 -85 -66 -90 4 -6 50 -46 102 -90 298
-250 564 -384 760 -384 199 1 291 209 277 624 -7 195 -49 477 -72 482 -6 1
-71 -11 -145 -27z"/>
<path d="M5439 3903 c45 -54 108 -127 141 -163 l61 -65 70 74 c58 61 151 171
202 239 8 9 -49 12 -272 12 l-282 0 80 -97z"/>
<path d="M10772 8878 c-16 -16 -15 -28 3 -28 8 0 15 9 15 20 0 23 -2 24 -18 8z"/>
</g>
</svg>
